<svg xmlns="http://www.w3.org/2000/svg" xmlns:xlink="http://www.w3.org/1999/xlink" width="500" zoomAndPan="magnify" viewBox="0 0 375 374.999991" height="500" preserveAspectRatio="xMidYMid meet" version="1.0"><defs><g/><clipPath id="6be1540616"><rect x="0" width="269" y="0" height="177"/></clipPath></defs><rect x="-37.5" width="450" fill="#ffffff" y="-37.499999" height="449.999989" fill-opacity="1"/><rect x="-37.5" width="450" fill="#12382e" y="-37.499999" height="449.999989" fill-opacity="1"/><g transform="matrix(1, 0, 0, 1, 53, 84)"><g clip-path="url(#6be1540616)"><g fill="#fff8ed" fill-opacity="1"><g transform="translate(0.722047, 146.271568)"><g><path d="M 34.078125 1.171875 C 25.304688 1.171875 18.257812 -1.4375 12.9375 -6.65625 C 7.625 -11.875 4.96875 -18.867188 4.96875 -27.640625 L 4.96875 -75.046875 C 4.96875 -83.722656 7.625 -90.644531 12.9375 -95.8125 C 18.257812 -100.976562 25.304688 -103.5625 34.078125 -103.5625 C 42.953125 -103.5625 50.046875 -100.976562 55.359375 -95.8125 C 60.679688 -90.644531 63.34375 -83.722656 63.34375 -75.046875 L 63.34375 -73.4375 C 63.34375 -72.945312 63.171875 -72.53125 62.828125 -72.1875 C 62.484375 -71.84375 62.066406 -71.671875 61.578125 -71.671875 L 44.46875 -70.953125 C 43.300781 -70.953125 42.71875 -71.488281 42.71875 -72.5625 L 42.71875 -76.359375 C 42.71875 -79.179688 41.9375 -81.46875 40.375 -83.21875 C 38.8125 -84.976562 36.710938 -85.859375 34.078125 -85.859375 C 31.546875 -85.859375 29.5 -84.976562 27.9375 -83.21875 C 26.375 -81.46875 25.59375 -79.179688 25.59375 -76.359375 L 25.59375 -25.890625 C 25.59375 -23.066406 26.375 -20.800781 27.9375 -19.09375 C 29.5 -17.382812 31.546875 -16.53125 34.078125 -16.53125 C 36.710938 -16.53125 38.8125 -17.382812 40.375 -19.09375 C 41.9375 -20.800781 42.71875 -23.066406 42.71875 -25.890625 L 42.71875 -29.84375 C 42.71875 -30.332031 42.882812 -30.742188 43.21875 -31.078125 C 43.5625 -31.421875 43.976562 -31.59375 44.46875 -31.59375 L 61.578125 -30.859375 C 62.066406 -30.859375 62.484375 -30.6875 62.828125 -30.34375 C 63.171875 -30.007812 63.34375 -29.597656 63.34375 -29.109375 L 63.34375 -27.640625 C 63.34375 -18.867188 60.660156 -11.875 55.296875 -6.65625 C 49.929688 -1.4375 42.859375 1.171875 34.078125 1.171875 Z M 34.078125 1.171875 "/></g></g></g><g fill="#fff8ed" fill-opacity="1"><g transform="translate(68.593775, 146.271568)"><g><path d="M 63.1875 -102.390625 C 63.675781 -102.390625 64.09375 -102.21875 64.4375 -101.875 C 64.78125 -101.539062 64.953125 -101.128906 64.953125 -100.640625 L 64.953125 -86.453125 C 64.953125 -85.960938 64.78125 -85.546875 64.4375 -85.203125 C 64.09375 -84.867188 63.675781 -84.703125 63.1875 -84.703125 L 44.90625 -84.703125 C 44.414062 -84.703125 44.171875 -84.457031 44.171875 -83.96875 L 44.171875 -1.75 C 44.171875 -1.269531 44 -0.859375 43.65625 -0.515625 C 43.320312 -0.171875 42.910156 0 42.421875 0 L 25.3125 0 C 24.820312 0 24.40625 -0.171875 24.0625 -0.515625 C 23.71875 -0.859375 23.546875 -1.269531 23.546875 -1.75 L 23.546875 -83.96875 C 23.546875 -84.457031 23.300781 -84.703125 22.8125 -84.703125 L 5.265625 -84.703125 C 4.773438 -84.703125 4.359375 -84.867188 4.015625 -85.203125 C 3.679688 -85.546875 3.515625 -85.960938 3.515625 -86.453125 L 3.515625 -100.640625 C 3.515625 -101.128906 3.679688 -101.539062 4.015625 -101.875 C 4.359375 -102.21875 4.773438 -102.390625 5.265625 -102.390625 Z M 63.1875 -102.390625 "/></g></g></g><g fill="#fff8ed" fill-opacity="1"><g transform="translate(137.050604, 146.271568)"><g><path d="M 46.8125 0 C 45.738281 0 45.054688 -0.488281 44.765625 -1.46875 L 33.5 -41.84375 C 33.300781 -42.226562 33.054688 -42.421875 32.765625 -42.421875 L 27.796875 -42.421875 C 27.304688 -42.421875 27.0625 -42.175781 27.0625 -41.6875 L 27.0625 -1.75 C 27.0625 -1.269531 26.890625 -0.859375 26.546875 -0.515625 C 26.203125 -0.171875 25.789062 0 25.3125 0 L 8.1875 0 C 7.695312 0 7.28125 -0.171875 6.9375 -0.515625 C 6.601562 -0.859375 6.4375 -1.269531 6.4375 -1.75 L 6.4375 -100.640625 C 6.4375 -101.128906 6.601562 -101.539062 6.9375 -101.875 C 7.28125 -102.21875 7.695312 -102.390625 8.1875 -102.390625 L 37.734375 -102.390625 C 43.097656 -102.390625 47.875 -101.097656 52.0625 -98.515625 C 56.257812 -95.929688 59.503906 -92.296875 61.796875 -87.609375 C 64.085938 -82.929688 65.234375 -77.570312 65.234375 -71.53125 C 65.234375 -65.78125 64.132812 -60.707031 61.9375 -56.3125 C 59.75 -51.925781 56.707031 -48.515625 52.8125 -46.078125 C 52.613281 -45.984375 52.460938 -45.863281 52.359375 -45.71875 C 52.265625 -45.570312 52.269531 -45.398438 52.375 -45.203125 L 65.828125 -2.046875 L 65.96875 -1.46875 C 65.96875 -0.488281 65.429688 0 64.359375 0 Z M 27.796875 -84.703125 C 27.304688 -84.703125 27.0625 -84.457031 27.0625 -83.96875 L 27.0625 -58.953125 C 27.0625 -58.460938 27.304688 -58.21875 27.796875 -58.21875 L 34.375 -58.21875 C 37.394531 -58.21875 39.851562 -59.410156 41.75 -61.796875 C 43.65625 -64.191406 44.609375 -67.390625 44.609375 -71.390625 C 44.609375 -75.484375 43.65625 -78.722656 41.75 -81.109375 C 39.851562 -83.503906 37.394531 -84.703125 34.375 -84.703125 Z M 27.796875 -84.703125 "/></g></g></g><g fill="#fff8ed" fill-opacity="1"><g transform="translate(205.946265, 146.271568)"><g><path d="M 8.1875 0 C 7.695312 0 7.28125 -0.171875 6.9375 -0.515625 C 6.601562 -0.859375 6.4375 -1.269531 6.4375 -1.75 L 6.4375 -100.640625 C 6.4375 -101.128906 6.601562 -101.539062 6.9375 -101.875 C 7.28125 -102.21875 7.695312 -102.390625 8.1875 -102.390625 L 25.3125 -102.390625 C 25.789062 -102.390625 26.203125 -102.21875 26.546875 -101.875 C 26.890625 -101.539062 27.0625 -101.128906 27.0625 -100.640625 L 27.0625 -18.4375 C 27.0625 -17.945312 27.304688 -17.703125 27.796875 -17.703125 L 58.515625 -17.703125 C 59.003906 -17.703125 59.414062 -17.53125 59.75 -17.1875 C 60.09375 -16.84375 60.265625 -16.425781 60.265625 -15.9375 L 60.265625 -1.75 C 60.265625 -1.269531 60.09375 -0.859375 59.75 -0.515625 C 59.414062 -0.171875 59.003906 0 58.515625 0 Z M 8.1875 0 "/></g></g></g></g></g></svg>